<svg width="100" height="100" viewBox="0 0 100 100" fill="none" xmlns="http://www.w3.org/2000/svg">
<path d="M88 50.5C88 71.2107 71.2107 88 50.5 88C29.7893 88 13 71.2107 13 50.5C13 29.7893 29.7893 13 50.5 13C71.2107 13 88 29.7893 88 50.5Z" fill="#008DB8"/>
<path fill-rule="evenodd" clip-rule="evenodd" d="M14.0052 49.8783C14.0017 50.0851 14 50.2924 14 50.5C14 70.6584 30.3416 87 50.5 87C70.6584 87 87 70.6584 87 50.5C87 31.1819 71.9923 15.369 53 14.0843V19C53 19.9933 53.4075 20.8753 54.2405 21.76C55.0934 22.6658 56.3487 23.5253 57.9393 24.4309C59.1037 25.0939 60.3956 25.7535 61.7862 26.4635C62.2939 26.7227 62.8147 26.9886 63.3473 27.2639C65.3214 28.2841 67.4226 29.4159 69.4803 30.753C73.5983 33.429 77.586 36.9556 80.1082 42.1506C82.6343 47.3538 83.6369 54.1202 81.9838 63.1795C81.5199 65.7217 80.0487 67.4756 78.0026 67.9995C75.9954 68.5135 73.7391 67.7636 71.8191 65.9787C69.7697 64.0735 68.881 61.3554 68.406 58.5268C68.102 56.716 67.9523 54.7258 67.8062 52.784C67.7272 51.7326 67.6491 50.6953 67.5483 49.7084C67.2513 46.8029 66.7546 44.2196 65.5664 42.2524C64.421 40.3559 62.5821 38.9505 59.3586 38.49C57.4715 38.2204 56.2216 38.385 55.3993 38.7716C54.6203 39.1379 54.1151 39.7551 53.8094 40.6843C53.4915 41.6502 53.4013 42.9278 53.4976 44.5114C53.5933 46.0842 53.8667 47.8794 54.2204 49.8479C54.3926 50.8059 54.584 51.8049 54.7812 52.8337C55.3862 55.9909 56.045 59.4289 56.3654 62.8215C56.791 67.328 56.6416 71.9192 54.9176 75.8976C53.9916 78.0344 52.2622 81.3017 49.4305 82.976C47.9767 83.8356 46.2424 84.2692 44.2391 83.928C42.2581 83.5905 40.0943 82.5096 37.724 80.492C33.0358 76.5015 30.9059 72.5667 29.9579 68.8662C29.2154 65.9678 29.2097 63.2133 29.2049 60.8597C29.2036 60.2617 29.2025 59.6896 29.1893 59.1475C29.1223 56.399 28.761 54.4479 27.052 52.9946C25.2594 51.4701 21.7924 50.322 14.9431 49.9318L14.0052 49.8783ZM14.0926 47.8801L15.0569 47.935C21.9576 48.3281 26.0172 49.4892 28.3477 51.471C30.7618 53.5239 31.1199 56.276 31.1887 59.0989C31.2037 59.7159 31.2055 60.3391 31.2073 60.9702C31.2141 63.3007 31.2212 65.7384 31.8954 68.3698C32.7352 71.6481 34.629 75.2312 39.0203 78.969C41.2139 80.8362 43.0564 81.6977 44.575 81.9564C46.0712 82.2113 47.3295 81.8949 48.4126 81.2545C50.6546 79.9288 52.1752 77.1961 53.0824 75.1024C54.6084 71.5808 54.7878 67.3886 54.3743 63.0096C54.0637 59.721 53.4313 56.4198 52.8304 53.2833C52.6297 52.2355 52.4325 51.2061 52.252 50.2017C51.8951 48.2161 51.6043 46.3268 51.5013 44.6327C51.399 42.9493 51.4758 41.3775 51.9096 40.0591C52.3556 38.7039 53.1869 37.6018 54.5483 36.9617C55.8665 36.3419 57.561 36.2128 59.6414 36.51C63.4179 37.0495 65.8017 38.7736 67.2784 41.2185C68.7124 43.5927 69.2372 46.5628 69.5379 49.5051C69.6512 50.6132 69.7327 51.7062 69.8128 52.7801C69.9523 54.6505 70.0875 56.4628 70.3784 58.1956C70.8302 60.886 71.6211 63.0639 73.1809 64.5139C74.7609 65.9827 76.344 66.3597 77.5065 66.062C78.6301 65.7743 79.659 64.7783 80.0162 62.8205C81.6103 54.0852 80.6115 47.7668 78.309 43.0241C76.0025 38.2732 72.3343 34.9929 68.3905 32.43C66.4173 31.1477 64.3861 30.0521 62.429 29.0406C61.9202 28.7776 61.4139 28.5191 60.9143 28.2641C59.5093 27.5467 58.157 26.8563 56.9497 26.169C55.3143 25.2378 53.8473 24.2598 52.7844 23.1311C51.7017 21.9812 51 20.6317 51 19V14.0034C50.8336 14.0011 50.6669 14 50.5 14C31.2226 14 15.4356 28.9445 14.0926 47.8801ZM12 50.5C12 29.237 29.237 12 50.5 12C71.763 12 89 29.237 89 50.5C89 71.763 71.763 89 50.5 89C29.237 89 12 71.763 12 50.5Z" fill="white"/>
</svg>
