<svg width="196" height="70" viewBox="0 0 220 70" fill="none" xmlns="http://www.w3.org/2000/svg">
<path d="M44 35.25C44 45.6053 35.6053 54 25.25 54C14.8947 54 6.5 45.6053 6.5 35.25C6.5 24.8947 14.8947 16.5 25.25 16.5C35.6053 16.5 44 24.8947 44 35.25Z" fill="#008DB8"/>
<path fill-rule="evenodd" clip-rule="evenodd" d="M7.00259 34.9392C7.00087 35.0426 7 35.1462 7 35.25C7 45.3292 15.1708 53.5 25.25 53.5C35.3292 53.5 43.5 45.3292 43.5 35.25C43.5 25.5909 35.9962 17.6845 26.5 17.0421V19.5C26.5 19.9966 26.7037 20.4377 27.1203 20.88C27.5467 21.3329 28.1743 21.7626 28.9696 22.2155C29.5519 22.5469 30.1978 22.8767 30.8931 23.2317C31.1469 23.3613 31.4074 23.4943 31.6737 23.6319C32.6607 24.1421 33.7113 24.7079 34.7401 25.3765C36.7991 26.7145 38.793 28.4778 40.0541 31.0753C41.3171 33.6769 41.8185 37.0601 40.9919 41.5898C40.7599 42.8608 40.0244 43.7378 39.0013 43.9998C37.9977 44.2567 36.8696 43.8818 35.9096 42.9894C34.8848 42.0367 34.4405 40.6777 34.203 39.2634C34.051 38.358 33.9761 37.3629 33.9031 36.392C33.8636 35.8663 33.8246 35.3477 33.7741 34.8542C33.6257 33.4015 33.3773 32.1098 32.7832 31.1262C32.2105 30.178 31.291 29.4752 29.6793 29.245C28.7357 29.1102 28.1108 29.1925 27.6997 29.3858C27.3102 29.569 27.0576 29.8775 26.9047 30.3421C26.7458 30.8251 26.7007 31.4639 26.7488 32.2557C26.7966 33.0421 26.9333 33.9397 27.1102 34.924C27.1963 35.4029 27.292 35.9024 27.3906 36.4169C27.6931 37.9954 28.0225 39.7144 28.1827 41.4108C28.3955 43.664 28.3208 45.9596 27.4588 47.9488C26.9958 49.0172 26.1311 50.6509 24.7153 51.488C23.9884 51.9178 23.1212 52.1346 22.1195 51.964C21.1291 51.7952 20.0471 51.2548 18.862 50.246C16.5179 48.2508 15.453 46.2833 14.979 44.4331C14.6077 42.9839 14.6049 41.6067 14.6024 40.4299C14.6018 40.1309 14.6012 39.8448 14.5946 39.5738C14.5612 38.1995 14.3805 37.2239 13.526 36.4973C12.6297 35.7351 10.8962 35.161 7.47156 34.9659L7.00259 34.9392ZM7.04629 33.94L7.52844 33.9675C10.9788 34.1641 13.0086 34.7446 14.1738 35.7355C15.3809 36.7619 15.56 38.138 15.5943 39.5494C15.6018 39.858 15.6028 40.1696 15.6037 40.4851C15.6071 41.6504 15.6106 42.8692 15.9477 44.1849C16.3676 45.824 17.3145 47.6156 19.5102 49.4845C20.607 50.4181 21.5282 50.8488 22.2875 50.9782C23.0356 51.1056 23.6648 50.9474 24.2063 50.6272C25.3273 49.9644 26.0876 48.5981 26.5412 47.5512C27.3042 45.7904 27.3939 43.6943 27.1871 41.5048C27.0319 39.8605 26.7156 38.2099 26.4152 36.6416C26.3148 36.1177 26.2162 35.6031 26.126 35.1008C25.9476 34.108 25.8022 33.1634 25.7507 32.3164C25.6995 31.4747 25.7379 30.6887 25.9548 30.0295C26.1778 29.3519 26.5934 28.8009 27.2742 28.4809C27.9333 28.1709 28.7805 28.1064 29.8207 28.255C31.709 28.5248 32.9009 29.3868 33.6392 30.6092C34.3562 31.7963 34.6186 33.2814 34.769 34.7525C34.8256 35.3066 34.8663 35.8531 34.9064 36.3901C34.9761 37.3252 35.0437 38.2314 35.1892 39.0978C35.4151 40.443 35.8106 41.532 36.5904 42.2569C37.3804 42.9913 38.172 43.1798 38.7533 43.031C39.3151 42.8872 39.8295 42.3892 40.0081 41.4102C40.8051 37.0426 40.3058 33.8834 39.1545 31.512C38.0012 29.1366 36.1672 27.4964 34.1953 26.215C33.2086 25.5739 32.1931 25.026 31.2145 24.5203C30.9601 24.3888 30.707 24.2596 30.4572 24.132C29.7546 23.7734 29.0785 23.4282 28.4749 23.0845C27.6571 22.6189 26.9236 22.1299 26.3922 21.5655C25.8509 20.9906 25.5 20.3159 25.5 19.5V17.0017C25.4168 17.0006 25.3335 17 25.25 17C15.6113 17 7.71779 24.4723 7.04629 33.94ZM6 35.25C6 24.6185 14.6185 16 25.25 16C35.8815 16 44.5 24.6185 44.5 35.25C44.5 45.8815 35.8815 54.5 25.25 54.5C14.6185 54.5 6 45.8815 6 35.25Z" fill="white"/>
<path d="M59.1 25.344C61.172 25.344 62.9827 25.7547 64.532 26.576C66.0813 27.3973 67.276 28.5547 68.116 30.048C68.9747 31.5227 69.404 33.2307 69.404 35.172C69.404 37.0947 68.9747 38.8027 68.116 40.296C67.276 41.7893 66.072 42.9467 64.504 43.768C62.9547 44.5893 61.1533 45 59.1 45H51.736V25.344H59.1ZM58.792 40.856C60.6027 40.856 62.012 40.3613 63.02 39.372C64.028 38.3827 64.532 36.9827 64.532 35.172C64.532 33.3613 64.028 31.952 63.02 30.944C62.012 29.936 60.6027 29.432 58.792 29.432H56.524V40.856H58.792ZM71.1278 37.16C71.1278 35.5547 71.4264 34.1453 72.0238 32.932C72.6398 31.7187 73.4704 30.7853 74.5158 30.132C75.5611 29.4787 76.7278 29.152 78.0158 29.152C79.1171 29.152 80.0784 29.376 80.8998 29.824C81.7398 30.272 82.3838 30.86 82.8318 31.588V29.376H87.6198V45H82.8318V42.788C82.3651 43.516 81.7118 44.104 80.8718 44.552C80.0504 45 79.0891 45.224 77.9878 45.224C76.7184 45.224 75.5611 44.8973 74.5158 44.244C73.4704 43.572 72.6398 42.6293 72.0238 41.416C71.4264 40.184 71.1278 38.7653 71.1278 37.16ZM82.8318 37.188C82.8318 35.9933 82.4958 35.0507 81.8238 34.36C81.1704 33.6693 80.3678 33.324 79.4158 33.324C78.4638 33.324 77.6518 33.6693 76.9798 34.36C76.3264 35.032 75.9998 35.9653 75.9998 37.16C75.9998 38.3547 76.3264 39.3067 76.9798 40.016C77.6518 40.7067 78.4638 41.052 79.4158 41.052C80.3678 41.052 81.1704 40.7067 81.8238 40.016C82.4958 39.3253 82.8318 38.3827 82.8318 37.188ZM97.4397 45.224C96.077 45.224 94.8637 44.9907 93.7997 44.524C92.7357 44.0573 91.8957 43.4227 91.2797 42.62C90.6637 41.7987 90.3183 40.884 90.2437 39.876H94.9757C95.0317 40.4173 95.2837 40.856 95.7317 41.192C96.1797 41.528 96.7303 41.696 97.3837 41.696C97.981 41.696 98.4383 41.584 98.7557 41.36C99.0917 41.1173 99.2597 40.8093 99.2597 40.436C99.2597 39.988 99.0263 39.6613 98.5597 39.456C98.093 39.232 97.337 38.9893 96.2917 38.728C95.1717 38.4667 94.2383 38.196 93.4917 37.916C92.745 37.6173 92.101 37.16 91.5597 36.544C91.0183 35.9093 90.7477 35.06 90.7477 33.996C90.7477 33.1 90.9903 32.288 91.4757 31.56C91.9797 30.8133 92.7077 30.2253 93.6597 29.796C94.6303 29.3667 95.7783 29.152 97.1037 29.152C99.0637 29.152 100.604 29.6373 101.724 30.608C102.862 31.5787 103.516 32.8667 103.684 34.472H99.2597C99.185 33.9307 98.9423 33.5013 98.5317 33.184C98.1397 32.8667 97.617 32.708 96.9637 32.708C96.4037 32.708 95.9743 32.82 95.6757 33.044C95.377 33.2493 95.2277 33.5387 95.2277 33.912C95.2277 34.36 95.461 34.696 95.9277 34.92C96.413 35.144 97.1597 35.368 98.1677 35.592C99.325 35.8907 100.268 36.1893 100.996 36.488C101.724 36.768 102.358 37.2347 102.9 37.888C103.46 38.5227 103.749 39.3813 103.768 40.464C103.768 41.3787 103.506 42.2 102.984 42.928C102.48 43.6373 101.742 44.1973 100.772 44.608C99.8197 45.0187 98.709 45.224 97.4397 45.224ZM116.301 29.208C118.093 29.208 119.53 29.8053 120.613 31C121.696 32.176 122.237 33.8 122.237 35.872V45H117.477V36.516C117.477 35.4707 117.206 34.6587 116.665 34.08C116.124 33.5013 115.396 33.212 114.481 33.212C113.566 33.212 112.838 33.5013 112.297 34.08C111.756 34.6587 111.485 35.4707 111.485 36.516V45H106.697V24.28H111.485V31.476C111.97 30.7853 112.633 30.2347 113.473 29.824C114.313 29.4133 115.256 29.208 116.301 29.208Z" fill="#008DB8"/>
<path d="M131.392 25.344L133.66 40.184L141.136 25.344H146.232L135.788 45H129.796L126.296 25.344H131.392ZM150.221 27.752C149.474 27.752 148.877 27.556 148.429 27.164C148 26.7533 147.785 26.24 147.785 25.624C147.785 24.784 148.112 24.0653 148.765 23.468C149.418 22.8707 150.212 22.572 151.145 22.572C151.892 22.572 152.48 22.7773 152.909 23.188C153.338 23.58 153.553 24.0933 153.553 24.728C153.553 25.5493 153.226 26.2587 152.573 26.856C151.92 27.4533 151.136 27.752 150.221 27.752ZM152.293 29.376L149.549 45H144.761L147.505 29.376H152.293ZM162.763 29.152C164.779 29.152 166.375 29.7027 167.551 30.804C168.746 31.8867 169.343 33.3707 169.343 35.256C169.343 35.872 169.296 36.4227 169.203 36.908C169.128 37.3373 169.016 37.7947 168.867 38.28H158.031C158.012 38.392 158.003 38.5693 158.003 38.812C158.003 39.6333 158.227 40.2587 158.675 40.688C159.123 41.1173 159.72 41.332 160.467 41.332C161.662 41.332 162.576 40.828 163.211 39.82H168.307C167.635 41.4067 166.543 42.704 165.031 43.712C163.519 44.72 161.82 45.224 159.935 45.224C157.919 45.224 156.304 44.664 155.091 43.544C153.896 42.424 153.299 40.9027 153.299 38.98C153.299 38.4013 153.355 37.804 153.467 37.188C153.747 35.564 154.326 34.1453 155.203 32.932C156.08 31.7187 157.172 30.7853 158.479 30.132C159.786 29.4787 161.214 29.152 162.763 29.152ZM164.499 35.844C164.536 35.5827 164.555 35.4053 164.555 35.312C164.555 34.5653 164.322 33.996 163.855 33.604C163.388 33.1933 162.772 32.988 162.007 32.988C161.186 32.988 160.458 33.24 159.823 33.744C159.207 34.2293 158.759 34.9293 158.479 35.844H164.499ZM170.721 37.16C171.001 35.5547 171.552 34.1453 172.373 32.932C173.194 31.7187 174.184 30.7853 175.341 30.132C176.498 29.4787 177.721 29.152 179.009 29.152C180.11 29.152 181.034 29.376 181.781 29.824C182.528 30.272 183.069 30.86 183.405 31.588L183.797 29.376H188.585L185.813 45H181.025L181.445 42.788C180.848 43.516 180.092 44.104 179.177 44.552C178.262 45 177.254 45.224 176.153 45.224C175.052 45.224 174.072 44.972 173.213 44.468C172.373 43.964 171.72 43.2547 171.253 42.34C170.786 41.4067 170.553 40.3147 170.553 39.064C170.553 38.4667 170.609 37.832 170.721 37.16ZM182.425 37.188C182.481 36.852 182.509 36.544 182.509 36.264C182.509 35.3493 182.238 34.6307 181.697 34.108C181.174 33.5853 180.502 33.324 179.681 33.324C178.729 33.324 177.861 33.6693 177.077 34.36C176.293 35.032 175.798 35.9653 175.593 37.16C175.537 37.496 175.509 37.804 175.509 38.084C175.509 38.9987 175.77 39.7267 176.293 40.268C176.834 40.7907 177.506 41.052 178.309 41.052C179.261 41.052 180.129 40.7067 180.913 40.016C181.697 39.3253 182.201 38.3827 182.425 37.188ZM195.773 39.624C195.754 39.7173 195.745 39.8387 195.745 39.988C195.745 40.324 195.838 40.5667 196.025 40.716C196.23 40.8653 196.557 40.94 197.005 40.94H198.713L197.985 45H195.549C192.413 45 190.845 43.684 190.845 41.052C190.845 40.66 190.891 40.1653 190.985 39.568L192.105 33.352H190.201L190.901 29.376H192.805L193.477 25.568H198.265L197.593 29.376H200.729L200.029 33.352H196.893L195.773 39.624ZM201.1 37.16C201.38 35.5547 201.93 34.1453 202.752 32.932C203.573 31.7187 204.562 30.7853 205.72 30.132C206.877 29.4787 208.1 29.152 209.388 29.152C210.489 29.152 211.413 29.376 212.16 29.824C212.906 30.272 213.448 30.86 213.784 31.588L214.176 29.376H218.964L216.192 45H211.404L211.824 42.788C211.226 43.516 210.47 44.104 209.556 44.552C208.641 45 207.633 45.224 206.532 45.224C205.43 45.224 204.45 44.972 203.592 44.468C202.752 43.964 202.098 43.2547 201.632 42.34C201.165 41.4067 200.932 40.3147 200.932 39.064C200.932 38.4667 200.988 37.832 201.1 37.16ZM212.804 37.188C212.86 36.852 212.888 36.544 212.888 36.264C212.888 35.3493 212.617 34.6307 212.076 34.108C211.553 33.5853 210.881 33.324 210.06 33.324C209.108 33.324 208.24 33.6693 207.456 34.36C206.672 35.032 206.177 35.9653 205.972 37.16C205.916 37.496 205.888 37.804 205.888 38.084C205.888 38.9987 206.149 39.7267 206.672 40.268C207.213 40.7907 207.885 41.052 208.688 41.052C209.64 41.052 210.508 40.7067 211.292 40.016C212.076 39.3253 212.58 38.3827 212.804 37.188Z" fill="#0D7482"/>
</svg>
